<?xml version="1.0" encoding="UTF-8" standalone="no"?>
<!-- Created with Inkscape (http://www.inkscape.org/) -->

<svg
   width="13"
   height="13"
   viewBox="0 0 13 13"
   version="1.1"
   id="svg1"
   xml:space="preserve"
   sodipodi:docname="dclare-messages-tool_dark.svg"
   inkscape:version="1.3.2 (091e20e, 2023-11-25)"
   xmlns:inkscape="http://www.inkscape.org/namespaces/inkscape"
   xmlns:sodipodi="http://sodipodi.sourceforge.net/DTD/sodipodi-0.dtd"
   xmlns="http://www.w3.org/2000/svg"
   xmlns:svg="http://www.w3.org/2000/svg"><sodipodi:namedview
     id="namedview1"
     pagecolor="#202020"
     bordercolor="#000000"
     borderopacity="0.25"
     inkscape:showpageshadow="2"
     inkscape:pageopacity="0.0"
     inkscape:pagecheckerboard="0"
     inkscape:deskcolor="#d1d1d1"
     inkscape:document-units="px"
     inkscape:zoom="33.35359"
     inkscape:cx="11.557976"
     inkscape:cy="9.5641878"
     inkscape:window-width="1728"
     inkscape:window-height="1051"
     inkscape:window-x="0"
     inkscape:window-y="38"
     inkscape:window-maximized="1"
     inkscape:current-layer="layer1"
     showgrid="true"
     inkscape:clip-to-page="false"><inkscape:grid
       id="grid1"
       units="px"
       originx="-7.7685108"
       originy="-16.685226"
       spacingx="1"
       spacingy="1"
       empcolor="#0099e5"
       empopacity="0.30196078"
       color="#0099e5"
       opacity="0.14901961"
       empspacing="5"
       dotted="false"
       gridanglex="30"
       gridanglez="30"
       visible="true" /></sodipodi:namedview><defs
     id="defs1" /><g
     inkscape:label="Layer 1"
     inkscape:groupmode="layer"
     id="layer1"
     transform="translate(-7.7685111,-16.685227)"><path
       style="fill:#ececec;fill-opacity:1;stroke-width:0.0264523"
       d="m 8.0760427,28.779434 0.2631574,-0.882536 0.173083,-4.95e-4 c 0.095197,-2.46e-4 0.3175521,-0.01096 0.4941249,-0.02372 l 0.321042,-0.02323 0.087761,-0.05472 0.087763,-0.05474 0.071619,-0.144838 c 0.039393,-0.07965 0.1114383,-0.269766 0.160106,-0.42245 0.1062777,-0.333424 0.045443,-0.103242 1.676764,-6.34427 0.432528,-1.654738 0.564493,-2.262594 0.499554,-2.301037 -0.003,-0.0018 -0.303374,-0.0099 -0.667559,-0.0181 l -0.662159,-0.01491 0.232554,-0.869038 0.232553,-0.869038 2.072147,-0.0072 2.072146,-0.0071 0.432249,0.02613 c 1.78105,0.107606 2.779341,0.503598 3.649435,1.447618 0.741115,0.804084 1.224349,1.847317 1.409439,3.042781 l 0.0355,0.229331 0.01075,0.531079 0.01075,0.531079 -0.03609,0.35003 c -0.246542,2.392032 -1.372036,4.281952 -3.333735,5.598011 -0.957329,0.642251 -1.798208,0.937616 -3.148055,1.105775 l -0.305496,0.03805 -3.05134,0.01011 -3.0513415,0.01011 z m 5.5153383,-1.183735 c 2.528301,-0.302388 3.845476,-1.74204 4.185169,-4.574325 l 0.04497,-0.374919 0.0019,-0.591429 0.002,-0.59143 -0.03768,-0.284872 C 17.59962,19.75684 16.992055,19.048303 15.795859,18.855915 l -0.216125,-0.03476 -0.479341,-4.29e-4 -0.479343,-4.29e-4 -0.03229,0.126735 c -0.07277,0.285576 -0.913377,3.541011 -1.148504,4.447789 -0.07574,0.292094 -0.275158,1.063365 -0.443154,1.713937 -0.167997,0.650574 -0.358353,1.385964 -0.423014,1.634205 -0.172349,0.661658 -0.223152,0.882762 -0.207207,0.901794 0.02188,0.02615 0.884957,-0.0085 1.224515,-0.04903 z m 5.479561,-7.078263 0.140121,-0.07712 0.103624,-0.115741 0.103622,-0.115742 0.06905,-0.156657 0.06905,-0.156658 v -0.253983 -0.253978 l -0.05793,-0.138033 c -0.109617,-0.261234 -0.31558,-0.456691 -0.567395,-0.538455 l -0.127685,-0.04146 -0.153003,0.01195 -0.153002,0.01195 -0.12502,0.05335 -0.125017,0.05335 -0.128544,0.132927 -0.128545,0.132926 -0.07063,0.160234 -0.07062,0.160233 v 0.254484 0.254486 l 0.06957,0.156401 c 0.106918,0.240368 0.25301,0.393122 0.475715,0.497405 l 0.1247,0.0584 0.205903,-0.0065 0.205905,-0.0065 z"
       id="path1175"
       inkscape:transform-center-x="-0.24959843"
       inkscape:transform-center-y="0.51931513" /></g></svg>
