<?xml version="1.0" encoding="UTF-8" standalone="no"?>
<!-- Created with Inkscape (http://www.inkscape.org/) -->

<svg
   width="13"
   height="13"
   viewBox="0 0 13 13"
   version="1.1"
   id="svg1"
   xml:space="preserve"
   sodipodi:docname="dclare.svg"
   inkscape:version="1.3.2 (091e20e, 2023-11-25)"
   xmlns:inkscape="http://www.inkscape.org/namespaces/inkscape"
   xmlns:sodipodi="http://sodipodi.sourceforge.net/DTD/sodipodi-0.dtd"
   xmlns="http://www.w3.org/2000/svg"
   xmlns:svg="http://www.w3.org/2000/svg"><sodipodi:namedview
     id="namedview1"
     pagecolor="#ffffff"
     bordercolor="#000000"
     borderopacity="0.25"
     inkscape:showpageshadow="2"
     inkscape:pageopacity="0.0"
     inkscape:pagecheckerboard="true"
     inkscape:deskcolor="#d1d1d1"
     inkscape:document-units="px"
     inkscape:zoom="43.996301"
     inkscape:cx="6.6710154"
     inkscape:cy="6.5232757"
     inkscape:window-width="1728"
     inkscape:window-height="1051"
     inkscape:window-x="0"
     inkscape:window-y="38"
     inkscape:window-maximized="1"
     inkscape:current-layer="layer1"
     labelstyle="default"
     inkscape:clip-to-page="false" /><defs
     id="defs1" /><g
     inkscape:label="Layer 1"
     inkscape:groupmode="layer"
     id="layer1"><path
       style="fill:#00a1d2;fill-opacity:1;stroke-width:0.0264395"
       d="m 0.29318767,12.081343 0.26271169,-0.883186 0.17278982,-4.96e-4 c 0.0950343,-2.74e-4 0.31701382,-0.011 0.49328772,-0.02374 l 0.3204982,-0.02324 0.087612,-0.05476 0.087613,-0.05476 0.071498,-0.144946 C 1.8285233,10.816473 1.9004487,10.62624 1.9490339,10.473441 2.0551311,10.139772 1.9943979,10.370126 3.6229584,4.12451 4.0547531,2.468556 4.1864948,1.8602532 4.1216653,1.8217825 4.1186978,1.8199697 3.8188055,1.8118728 3.4552364,1.8036631 L 2.7942005,1.7887451 3.0263596,0.91906795 3.2585185,0.04938958 5.3271556,0.04214189 7.3957918,0.03489421 7.827308,0.06103419 c 1.7780335,0.10768848 2.774634,0.50396878 3.643254,1.44868361 0.739859,0.8046739 1.222273,1.8486735 1.40705,3.0450159 l 0.03545,0.229499 0.01078,0.5314689 0.01079,0.5314701 -0.03602,0.3502865 C 12.652483,8.5912106 11.528895,10.482521 9.5705181,11.799547 8.614811,12.442271 7.7753564,12.737851 6.4277944,12.906133 l -0.3049758,0.03809 -3.0461723,0.01015 -3.04617181,0.01015 z M 5.7991834,10.896739 C 8.3232008,10.594126 9.6381441,9.1534157 9.9772627,6.3190501 l 0.044892,-0.3751943 0.0019,-0.5918627 0.0019,-0.5918638 -0.037607,-0.2850828 C 9.8006737,3.0521176 9.1941373,2.3430611 7.9999679,2.1505312 L 7.7842103,2.1157424 7.3056793,2.1152991 6.8271493,2.114857 6.7949086,2.2416842 C 6.722269,2.5274711 5.8830798,5.7852959 5.648352,6.6927407 5.572737,6.9850493 5.373659,7.7568876 5.2059464,8.4079385 5.0382347,9.0589881 4.8482007,9.7949202 4.7836487,10.043343 c -0.1720552,0.662145 -0.2227722,0.883411 -0.2068551,0.902459 0.021857,0.02615 0.8834588,-0.0085 1.2224395,-0.04907 z m 5.4702776,-7.0834662 0.139885,-0.077176 0.103448,-0.1158301 0.103448,-0.1158301 0.06894,-0.1567733 0.06893,-0.1567734 V 2.9367272 2.6825631 l -0.05783,-0.138136 C 11.586845,2.2830008 11.381235,2.0874027 11.129847,2.0055765 l -0.12747,-0.041493 -0.152742,0.011959 -0.152744,0.011959 -0.124807,0.053391 -0.124807,0.053403 -0.128326,0.1330252 -0.128327,0.1330251 -0.0705,0.1603513 -0.0705,0.1603503 v 0.25467 0.2546715 l 0.06945,0.1565173 c 0.106739,0.2405457 0.252583,0.3934102 0.47491,0.4977696 l 0.124489,0.05844 0.205555,-0.00653 0.205556,-0.00653 z"
       id="path1175" /></g></svg>
