<?xml version="1.0" encoding="UTF-8" standalone="no"?>
<!-- Created with Inkscape (http://www.inkscape.org/) -->

<svg
   width="16"
   height="16"
   viewBox="0 0 16 16"
   version="1.1"
   id="svg1"
   xml:space="preserve"
   sodipodi:docname="dclare-folder_dark.svg"
   inkscape:version="1.3.2 (091e20e, 2023-11-25)"
   xmlns:inkscape="http://www.inkscape.org/namespaces/inkscape"
   xmlns:sodipodi="http://sodipodi.sourceforge.net/DTD/sodipodi-0.dtd"
   xmlns="http://www.w3.org/2000/svg"
   xmlns:svg="http://www.w3.org/2000/svg"><sodipodi:namedview
     id="namedview1"
     pagecolor="#ffffff"
     bordercolor="#000000"
     borderopacity="0.25"
     inkscape:showpageshadow="2"
     inkscape:pageopacity="0.0"
     inkscape:pagecheckerboard="true"
     inkscape:deskcolor="#d1d1d1"
     inkscape:document-units="px"
     inkscape:zoom="23.587074"
     inkscape:cx="17.721571"
     inkscape:cy="17.467194"
     inkscape:window-width="1728"
     inkscape:window-height="1051"
     inkscape:window-x="0"
     inkscape:window-y="38"
     inkscape:window-maximized="0"
     inkscape:current-layer="layer1"
     labelstyle="default"
     inkscape:clip-to-page="false" /><defs
     id="defs1"><inkscape:path-effect
       effect="fillet_chamfer"
       id="path-effect5"
       is_visible="true"
       lpeversion="1"
       nodesatellites_param="F,0,0,1,0,0.8,0,1 @ F,0,0,1,0,0.8,0,1 @ F,0,0,1,0,0.8,0,1 @ F,0,0,1,0,0.8,0,1 @ F,0,0,1,0,0.8,0,1 @ F,0,0,1,0,0.8,0,1"
       radius="0.8"
       unit="px"
       method="auto"
       mode="F"
       chamfer_steps="1"
       flexible="false"
       use_knot_distance="true"
       apply_no_radius="true"
       apply_with_radius="true"
       only_selected="false"
       hide_knots="false" /><inkscape:path-effect
       effect="fillet_chamfer"
       id="path-effect4"
       is_visible="true"
       lpeversion="1"
       nodesatellites_param="F,0,0,1,0,0,0,1 @ F,0,0,1,0,0,0,1 @ F,0,0,1,0,0,0,1 @ F,0,0,1,0,0,0,1 @ F,0,0,1,0,0,0,1 @ F,0,0,1,0,0,0,1"
       radius="0"
       unit="px"
       method="auto"
       mode="F"
       chamfer_steps="1"
       flexible="false"
       use_knot_distance="true"
       apply_no_radius="true"
       apply_with_radius="true"
       only_selected="false"
       hide_knots="false" /></defs><g
     inkscape:label="Layer 1"
     inkscape:groupmode="layer"
     id="layer1"><path
       d="m 2.3686104,2.2384834 2.3853243,-0.025376 a 1.4421858,1.4421858 28.40822 0 1 1.2306661,0.6656469 l 0.1136875,0.1779457 a 1.4741895,1.4741895 28.938541 0 0 1.2306866,0.680456 l 3.7843551,0.029798 a 0.80159439,0.80159439 45.394099 0 1 0.795269,0.8062852 l -0.03299,5.6073656 a 0.80472016,0.80472016 135.16853 0 1 -0.804706,0.799986 H 2.3686557 a 0.8,0.8 45 0 1 -0.8,-0.8 l 0,-7.1335975 A 0.80855589,0.80855589 134.69525 0 1 2.3686104,2.2384834 Z"
       id="folder"
       style="fill:#42454c;fill-opacity:1;stroke:#00a1d2;stroke-width:0.8;stroke-linecap:butt;stroke-linejoin:miter;stroke-miterlimit:0;stroke-dasharray:none;stroke-opacity:1;paint-order:normal"
       sodipodi:nodetypes="ccccccc"
       inkscape:path-effect="#path-effect5"
       inkscape:original-d="m 1.5686557,2.2469935 3.9852337,-0.042396 0.9751103,1.5262597 5.3843053,0.042396 -0.0424,7.2073378 H 1.5686557 Z"
       inkscape:label="folder"
       transform="matrix(1.3382105,0,0,1.3382105,-1.0311932,-2.1708857)" /><rect
       style="fill:#42454c;fill-opacity:1;stroke-width:0.884422;paint-order:normal"
       id="rect5"
       width="6.3041053"
       height="6.0923581"
       x="9.1714878"
       y="6.9262419" /><path
       style="fill:#00a1d2;fill-opacity:1;stroke-width:0.0161268"
       d="m 8.7184719,15.276146 0.1513136,-0.570487 0.099521,-3.22e-4 c 0.054737,-1.75e-4 0.1825904,-0.007 0.2841191,-0.01534 l 0.1845971,-0.015 0.050463,-0.03537 0.050463,-0.03538 0.041182,-0.09362 c 0.02265,-0.0515 0.064077,-0.174382 0.092061,-0.273082 0.061108,-0.215532 0.026126,-0.06673 0.9641303,-4.10104 0.248701,-1.0696654 0.32458,-1.4625936 0.28724,-1.4874433 -0.0017,-0.00119 -0.174438,-0.00639 -0.383843,-0.011693 l -0.380737,-0.00963 0.133717,-0.5617607 0.133716,-0.5617613 1.191473,-0.00469 1.191472,-0.00469 0.248538,0.016882 c 1.024094,0.069561 1.598107,0.3255344 2.098405,0.9357651 0.426135,0.5197727 0.703992,1.1941352 0.810419,1.9669032 l 0.02041,0.148242 0.0062,0.343298 0.0062,0.343299 -0.02075,0.226265 c -0.141835,1.546214 -0.788991,2.767892 -1.916958,3.618613 -0.550457,0.41516 -1.033958,0.606087 -1.810112,0.714789 l -0.175656,0.0246 -1.754503,0.0066 -1.754503,0.0066 z m 3.1712861,-0.765184 c 1.453759,-0.195472 2.211125,-1.126088 2.406448,-2.956923 l 0.02585,-0.242353 0.0011,-0.382309 0.0011,-0.382309 -0.02167,-0.184147 C 14.194476,9.4437922 13.84513,8.9857827 13.157324,8.8614199 l -0.124269,-0.022472 -0.275619,-2.864e-4 -0.275619,-2.854e-4 -0.01857,0.081923 C 12.421417,9.1049 11.938065,11.209265 11.80287,11.795421 c -0.04355,0.188814 -0.158217,0.687377 -0.254813,1.107919 -0.0966,0.42054 -0.206052,0.895909 -0.243231,1.056374 -0.0991,0.427708 -0.12831,0.570633 -0.119142,0.582937 0.01259,0.0169 0.508846,-0.0055 0.704088,-0.03168 z m 3.150714,-4.5755083 0.08058,-0.049852 0.05957,-0.07482 0.05957,-0.074818 0.03971,-0.101267 0.0397,-0.101267 V 9.3692568 9.2050811 l -0.03332,-0.089226 c -0.063,-0.1688676 -0.18143,-0.2952125 -0.326221,-0.3480673 l -0.07342,-0.026803 -0.08797,0.00773 -0.08798,0.00773 -0.07189,0.034491 -0.07189,0.034496 -0.07391,0.085927 -0.07392,0.085927 -0.04061,0.1035769 -0.04061,0.1035759 v 0.1645021 0.1645026 l 0.04001,0.1011006 c 0.06148,0.1553784 0.145474,0.2541201 0.273535,0.3215302 l 0.07169,0.03775 0.118388,-0.0042 0.118389,-0.0042 z"
       id="dclare"
       inkscape:label="dclare" /></g></svg>
